
<svg xmlns="http://www.w3.org/2000/svg" width="500" height="500" viewBox="0 0 500 500">
  <path fill="currentColor" fill-rule="evenodd" d="M257.5.5c1.322-.17 2.489.163 3.5 1 37.193 45.394 72.193 92.394 105 141 24.289 36.569 44.955 75.235 62 116 27.221 72.604 13.054 135.771-42.5 189.5-48.608 41.082-104.608 57.082-168 48-75.773-15.449-127.273-59.282-154.5-131.5-7.092-23.511-9.425-47.511-7-72 4.038-42.153 14.038-82.82 30-122 6.651-15.986 15.318-30.652 26-44 8.715 10.38 17.048 21.047 25 32 3.682 3.849 7.515 7.516 11.5 11 30.417-60.364 66.751-116.697 109-169zm-7 81c-22.284 29.457-44.784 58.79-67.5 88-10 14.667-20 29.333-30 44-10.582 17.163-19.582 35.163-27 54-5.202 15.242-6.869 30.909-5 47 7.701 51.035 36.201 84.202 85.5 99.5 45.716 10.939 87.716 2.939 126-24 39.584-32.158 53.084-72.992 40.5-122.5-6.041-17.415-13.707-34.082-23-50-29.64-48.107-62.807-93.44-92.5-136z"/>
</svg>
